<svg xmlns="http://www.w3.org/2000/svg"  viewBox="0 0 512 512" width="24px" height="24px"><path fill="#3d5389" d="M406,141H76c-2.761,0-5-2.239-5-5V76c0-2.761,2.239-5,5-5h330c2.762,0,5,2.239,5,5v60 C411,138.761,408.762,141,406,141z M81,131h320V81H81V131z"/><path fill="#95a5a5" d="M256,211h200v30v40v40v120H256H26V211H256z M366,253.91c-6.34-1.9-13.05-2.91-20-2.91 c-38.66,0-70,31.34-70,70s31.34,70,70,70c35.03,0,64.05-25.73,69.19-59.33c0.529-3.479,0.81-7.04,0.81-10.67 c0-6.95-1.01-13.66-2.91-20C406.38,278.42,388.58,260.62,366,253.91z M216,381V281H76v100H216z"/><polygon fill="#5165a2" points="456,161 456,211 256,211 26,211 26,131 76,131 406,131 456,131"/><polygon fill="#3d5389" points="38,143.667 88,143.667 418,143.667 456,143.667 456,131 406,131 76,131 26,131 26,211 38,211"/><rect width="30" height="40" x="456" y="281" fill="#ff7979"/><polygon fill="#d65b5b" points="463.084,288.583 486,288.583 486,281 456,281 456,321 463.084,321"/><polygon fill="#ff7979" points="486,161 486,241 456,241 456,211 456,161"/><polygon fill="#d65b5b" points="462.75,218.5 462.75,168.5 486,168.5 486,161 456,161 456,211 456,241 462.75,241"/><path fill="#dff9fb" d="M416,321c0,3.63-0.28,7.19-0.81,10.67C410.05,365.27,381.03,391,346,391c-38.66,0-70-31.34-70-70 s31.34-70,70-70c6.95,0,13.66,1.01,20,2.91c22.58,6.71,40.38,24.51,47.09,47.09C414.99,307.34,416,314.05,416,321z"/><path fill="#c7ecee" d="M284.5,333.741c0-38.66,31.34-70,70-70c6.95,0,13.66,1.01,20,2.91 c13.316,3.957,24.968,11.773,33.665,22.15c-8.654-16.688-23.834-29.444-42.165-34.892c-6.34-1.9-13.05-2.91-20-2.91 c-38.66,0-70,31.34-70,70c0,17.121,6.155,32.799,16.362,44.963C287.35,356.315,284.5,345.364,284.5,333.741z"/><path fill="#dff9fb" d="M216,281v100H76V281H216z M196,351v-20h-20v20H196z M166,351v-20h-40v20H166z M116,351v-20H96v20 H116z"/><polygon fill="#c7ecee" points="86.5,293.5 216,293.5 216,281 76,281 76,381 86.5,381"/><polygon fill="#7e8c8d" points="38.333,223.42 268.333,223.42 456,223.42 456,211 256,211 26,211 26,441 38.333,441"/><rect width="20" height="20" x="176" y="331" fill="#c7ecee"/><rect width="40" height="20" x="126" y="331" fill="#c7ecee"/><rect width="20" height="20" x="96" y="331" fill="#c7ecee"/><path fill="#dff9fb" d="M416,176H66c-2.761,0-5-2.239-5-5s2.239-5,5-5h350c2.762,0,5,2.239,5,5S418.762,176,416,176z"/><path fill="#dff9fb" d="M366,186c-2.762,0-5-2.239-5-5v-20c0-2.761,2.238-5,5-5s5,2.239,5,5v20 C371,183.761,368.762,186,366,186z"/><path fill="#c7ecee" d="M415.762,326.728c-0.189-0.021-0.375-0.058-0.571-0.058H371V306h42.1 c0.434,0,0.846-0.072,1.247-0.176c-0.362-1.63-0.782-3.238-1.257-4.824c-0.504-1.695-1.078-3.361-1.704-5H371v-40.386 c-1.639-0.626-3.305-1.2-5-1.704c-1.584-0.475-3.192-0.895-4.821-1.256c-0.104,0.404-0.179,0.82-0.179,1.256V296h-45 c-2.762,0-5,2.238-5,5s2.238,5,5,5h45v20.67h-55.5c-2.762,0-5,2.238-5,5s2.238,5,5,5H361v22.58c0,2.762,2.238,5,5,5s5-2.238,5-5 v-22.58h43.221c0.377-1.647,0.711-3.311,0.97-5C415.438,330.04,415.626,328.392,415.762,326.728z"/><rect width="140" height="100" x="76" y="281" fill="none"/><path fill="#7e8c8d" d="M256,386c-2.761,0-5,2.238-5,5v50h5h5v-50C261,388.238,258.762,386,256,386z"/><path fill="#7e8c8d" d="M256,276c-2.761,0-5-2.238-5-5v-50c0-2.761,2.239-5,5-5c2.762,0,5,2.239,5,5v50 C261,273.762,258.762,276,256,276z"/></svg>